# xmcd CD database file
#
# Track frame offsets:
#	150
#	11461
#	22567
#	35492
#	45696
#	55864
#	66559
#	80655
#	93976
#	107161
#
# Disc length: 1596 seconds
#
# Revision: 0
# Processed by: cddbd v1.5.2PL0 Copyright (c) Steve Scherf et al.
# Submitted via: CDex 1.51
#
DISCID=77063a0a
DTITLE=Hoagy Carmichael - Stardust
DYEAR=1947
DGENRE=Blues
TTITLE0=Hong Kong Blues
TTITLE1=Stardust
TTITLE2=Rockin' Chair
TTITLE3=Riverboat Shuffle
TTITLE4=Ole ButtermilkSky
TTITLE5=The Old Music Master
TTITLE6=Washboard Blues
TTITLE7=Little Old Lady
TTITLE8=Doctor, Lawyer, Indian, Chief
TTITLE9=My Resistance Is Low
EXTD=YEAR: 1947
EXTT0=
EXTT1=
EXTT2=
EXTT3=
EXTT4=
EXTT5=
EXTT6=
EXTT7=
EXTT8=
EXTT9=
PLAYORDER=
